<svg width="144" height="193" xmlns="http://www.w3.org/2000/svg" xmlns:xlink="http://www.w3.org/1999/xlink" xml:space="preserve" overflow="hidden"><defs><clipPath id="clip0"><rect x="62" y="293" width="144" height="193"/></clipPath><linearGradient x1="71.1074" y1="133.672" x2="89.4439" y2="151.145" gradientUnits="userSpaceOnUse" spreadMethod="pad" id="fill1"><stop offset="0" stop-color="#EF7D22"/><stop offset="0.23" stop-color="#EF741D"/><stop offset="0.62" stop-color="#EE5A10"/><stop offset="1" stop-color="#EE3B00"/></linearGradient><linearGradient x1="18.6645" y1="118.776" x2="25.9205" y2="141.813" gradientUnits="userSpaceOnUse" spreadMethod="pad" id="fill2"><stop offset="0" stop-color="#EF7D22"/><stop offset="0.23" stop-color="#EF741D"/><stop offset="0.62" stop-color="#EE5A10"/><stop offset="1" stop-color="#EE3B00"/></linearGradient><linearGradient x1="72" y1="184.843" x2="72" y2="0.00033539" gradientUnits="userSpaceOnUse" spreadMethod="pad" id="fill3"><stop offset="0" stop-color="#6819CB"/><stop offset="0.885417" stop-color="#AF239C"/><stop offset="1" stop-color="#ED2C72"/></linearGradient><linearGradient x1="72.1906" y1="150.028" x2="71.9845" y2="190.109" gradientUnits="userSpaceOnUse" spreadMethod="pad" id="fill4"><stop offset="0" stop-color="#821DBA"/><stop offset="1" stop-color="#ED2C72"/></linearGradient><linearGradient x1="53.4884" y1="22.1208" x2="98.9243" y2="26.0124" gradientUnits="userSpaceOnUse" spreadMethod="pad" id="fill5"><stop offset="0" stop-color="#BB85FF"/><stop offset="0.177476" stop-color="#BB85FF"/><stop offset="1" stop-color="#FF5E5E"/></linearGradient><linearGradient x1="53.4884" y1="22.1208" x2="98.9243" y2="26.0124" gradientUnits="userSpaceOnUse" spreadMethod="pad" id="fill6"><stop offset="0" stop-color="#BB85FF"/><stop offset="0.177476" stop-color="#BB85FF"/><stop offset="1" stop-color="#FF5E5E"/></linearGradient><linearGradient x1="53.4884" y1="22.1208" x2="98.9243" y2="26.0124" gradientUnits="userSpaceOnUse" spreadMethod="pad" id="fill7"><stop offset="0" stop-color="#BB85FF"/><stop offset="0.177476" stop-color="#BB85FF"/><stop offset="1" stop-color="#FF5E5E"/></linearGradient><linearGradient x1="53.4884" y1="22.1208" x2="98.9243" y2="26.0124" gradientUnits="userSpaceOnUse" spreadMethod="pad" id="fill8"><stop offset="0" stop-color="#BB85FF"/><stop offset="0.177476" stop-color="#BB85FF"/><stop offset="1" stop-color="#FF5E5E"/></linearGradient></defs><g clip-path="url(#clip0)" transform="translate(-62 -293)"><path d="M125.238 117.758 106.669 107.378 72.0012 127.388 72.0012 148.871 125.238 117.758Z" fill="url(#fill1)" transform="matrix(1 0 0 1.01285 62 293)"/><path d="M71.9981 148.87 72.0751 127.4 37.326 107.376 18.8436 117.916 71.9981 148.87Z" fill="url(#fill2)" transform="matrix(1 0 0 1.01285 62 293)"/><path d="M143.791 45.7058 125.155 56.4649 71.9174 25.7281 72.0037 4.25961 143.791 45.7058Z" fill="#DA125A" transform="matrix(1 0 0 1.01285 62 293)"/><path d="M0.209233 128.575 18.846 117.908 71.9963 148.511 71.9963 169.983 0.209233 128.575Z" fill="#DA125A" transform="matrix(1 0 0 1.01285 62 293)"/><path d="M143.791 128.56 125.155 117.801 125.155 56.3276 143.791 45.6679 143.791 128.56Z" fill="#ED2C72" transform="matrix(1 0 0 1.01285 62 293)"/><path d="M0.209233 45.6831 18.8446 56.4422 18.8446 117.916 0.209238 128.576 0.209233 45.6831Z" fill="#ED2C72" transform="matrix(1 0 0 1.01285 62 293)"/><path d="M72.0037 170.006 72.0037 148.488 125.158 117.799 143.791 128.56 72.0037 170.006Z" fill="#EA1B66" transform="matrix(1 0 0 1.01285 62 293)"/><path d="M71.9963 4.25966 71.9963 25.7779 18.7584 56.5147 0.209191 45.7059 71.9963 4.25966Z" fill="#DA125A" transform="matrix(1 0 0 1.01285 62 293)"/><path d="M72 127.397 37.3291 107.379 37.3291 20.0172 72-3.03103e-06 106.671 20.0172 106.671 107.379 72 127.397Z" fill="url(#fill3)" transform="matrix(1 0 0 1.01285 62 293)"/><path d="M46.7093 88.0324 50.6693 88.0324C50.6452 87.5402 50.4652 87.1262 50.1293 86.7904 49.8053 86.4546 49.3253 86.2864 48.6893 86.2864 48.1133 86.2864 47.6453 86.4664 47.2853 86.8264 46.9253 87.1864 46.7333 87.5886 46.7093 88.0324ZM50.9033 90.3364 52.9013 90.9304C52.6612 91.7466 52.1873 92.4182 51.4793 92.9464 50.7833 93.4746 49.9133 93.7384 48.8693 93.7384 47.5973 93.7384 46.5173 93.3126 45.6293 92.4604 44.7412 91.5964 44.2973 90.4444 44.2973 89.0044 44.2973 87.6364 44.7293 86.5204 45.5933 85.6564 46.4573 84.7806 47.4772 84.3424 48.6533 84.3424 50.0213 84.3424 51.0893 84.7502 51.8573 85.5664 52.6373 86.3826 53.0273 87.5042 53.0273 88.9324 53.0273 89.0286 53.0212 89.1366 53.0093 89.2564 53.0093 89.3762 53.0093 89.4724 53.0093 89.5444L52.9913 89.6704 46.6553 89.6704C46.6793 90.2464 46.9073 90.7262 47.3393 91.1104 47.7713 91.4946 48.2872 91.6864 48.8873 91.6864 49.9072 91.6864 50.5793 91.2364 50.9033 90.3364ZM60.8705 93.7384C59.0345 93.7384 57.4865 93.1264 56.2265 91.9024 54.9665 90.6784 54.3365 89.0764 54.3365 87.0964 54.3365 85.1282 54.9725 83.5262 56.2445 82.2904 57.5285 81.0546 59.0585 80.4364 60.8345 80.4364 62.4662 80.4364 63.7746 80.8504 64.7584 81.6784 65.7546 82.5064 66.3964 83.5026 66.6844 84.6664L64.3444 85.4044C64.1644 84.6844 63.7864 84.0786 63.2104 83.5864 62.6344 83.0824 61.8425 82.8304 60.8345 82.8304 59.7905 82.8304 58.8725 83.2022 58.0805 83.9464 57.3005 84.6906 56.9105 85.7402 56.9105 87.0964 56.9105 88.3924 57.2945 89.4184 58.0625 90.1744 58.8425 90.9304 59.7785 91.3084 60.8705 91.3084 61.8665 91.3084 62.6586 91.0502 63.2464 90.5344 63.8466 90.0186 64.2482 89.4066 64.4524 88.6984L66.7744 89.4004C66.6422 89.9162 66.4262 90.4202 66.1264 90.9124 65.8384 91.4046 65.4604 91.8664 64.9924 92.2984 64.5244 92.7304 63.9304 93.0786 63.2104 93.3424 62.5022 93.6062 61.7225 93.7384 60.8705 93.7384ZM71.3408 86.5204 73.3028 86.5204C73.9148 86.5204 74.4008 86.3584 74.7608 86.0344 75.1208 85.6986 75.3008 85.2542 75.3008 84.7024 75.3008 84.1382 75.1208 83.6944 74.7608 83.3704 74.4126 83.0346 73.9266 82.8664 73.3028 82.8664L71.3408 82.8664 71.3408 86.5204ZM73.6088 88.6624 71.3228 88.6624 71.3228 93.4684 68.8388 93.4684 68.8388 80.7064 73.6088 80.7064C74.8564 80.7064 75.8644 81.0782 76.6328 81.8224 77.4124 82.5666 77.8028 83.5206 77.8028 84.6844 77.8028 85.8482 77.4124 86.8022 76.6328 87.5464 75.8644 88.2906 74.8564 88.6624 73.6088 88.6624ZM82.2041 86.5204 84.1661 86.5204C84.7781 86.5204 85.2641 86.3584 85.6241 86.0344 85.9841 85.6986 86.1641 85.2542 86.1641 84.7024 86.1641 84.1382 85.9841 83.6944 85.6241 83.3704 85.2759 83.0346 84.7899 82.8664 84.1661 82.8664L82.2041 82.8664 82.2041 86.5204ZM84.4721 88.6624 82.1861 88.6624 82.1861 93.4684 79.7021 93.4684 79.7021 80.7064 84.4721 80.7064C85.7197 80.7064 86.7277 81.0782 87.4961 81.8224 88.2757 82.5666 88.6661 83.5206 88.6661 84.6844 88.6661 85.8482 88.2757 86.8022 87.4961 87.5464 86.7277 88.2906 85.7197 88.6624 84.4721 88.6624ZM100.014 83.0644 95.9816 83.0644 95.9816 93.4684 93.4796 93.4684 93.4796 83.0644 89.4476 83.0644 89.4476 80.7064 100.014 80.7064 100.014 83.0644Z" fill="#FFFFFF" transform="matrix(1 0 0 1.01285 62 293)"/><path d="M72 169.983 103.878 188.387C105.119 189.104 106.671 188.209 106.671 186.775L106.671 150.043 72 169.983 37.3291 150.043 37.3291 186.775C37.3291 188.209 38.8808 189.104 40.1222 188.387L72 169.983Z" fill="url(#fill4)" transform="matrix(1 0 0 1.01285 62 293)"/><path d="M88.4911 28.7045 89.5022 28.7045C90.2775 28.7045 90.6654 29.6418 90.1173 30.19L79.1926 41.1149C78.8654 41.4418 78.3354 41.4418 78.0083 41.1149 77.6812 40.7878 77.6812 40.2576 78.0083 39.9306L87.5359 30.4029C82.5983 30.649 77.9313 32.7948 74.5262 36.4125 74.209 36.7492 73.679 36.7652 73.3426 36.4483 73.0055 36.1313 72.9894 35.6013 73.3065 35.2646 77.2473 31.0782 82.7417 28.7045 88.4911 28.7045ZM64.7069 45.0479C65.034 45.3749 65.034 45.9051 64.7069 46.2321L57.947 52.992 58.9254 55.5135 61.447 56.492 68.207 49.7321C68.5341 49.4051 69.0641 49.4051 69.3912 49.7321 69.7183 50.0591 69.7183 50.5892 69.3912 50.9163L63.1533 57.1541 64.8385 57.808C65.2699 57.9753 65.4834 58.4604 65.3164 58.8915 65.1488 59.3227 64.6641 59.5365 64.2327 59.3693L58.4584 57.1286 53.6106 61.9765C53.2836 62.3036 52.7535 62.3036 52.4264 61.9765 52.0994 61.6494 52.0994 61.1193 52.4264 60.7923L57.2901 55.9286 55.0697 50.2063C54.9024 49.7752 55.1163 49.29 55.5474 49.1227 55.9786 48.9554 56.4636 49.1693 56.631 49.6004L57.2849 51.2857 63.5226 45.0479C63.8497 44.7209 64.3798 44.7209 64.7069 45.0479Z" fill="url(#fill5)" fill-rule="evenodd" transform="matrix(1 0 0 1.01285 62 293)"/><path d="M52.4818 30.19C51.9336 29.6418 52.3219 28.7045 53.0971 28.7045L54.1077 28.7045C59.853 28.7045 65.3437 31.0746 69.2839 35.2553L85.8588 51.8305C86.1859 52.1575 86.1859 52.6877 85.8588 53.0147 85.5323 53.3417 85.0016 53.3417 84.6751 53.0147L68.0816 36.4217 68.0729 36.4125C64.6678 32.7948 60.0008 30.649 55.0631 30.4029L81.175 56.5147C81.5021 56.8417 81.5021 57.3718 81.175 57.6989 80.8479 58.0259 80.3179 58.0259 79.9908 57.6989L52.4818 30.19Z" fill="url(#fill6)" fill-rule="evenodd" transform="matrix(1 0 0 1.01285 62 293)"/><path d="M87.0517 49.1227C87.4825 49.29 87.6966 49.7751 87.529 50.2063L84.9681 56.8077 78.3664 59.3693C77.935 59.5365 77.4503 59.3227 77.2827 58.8915 77.1157 58.4604 77.3292 57.9753 77.7606 57.808L83.6733 55.5135 85.968 49.6004C86.1356 49.1693 86.6203 48.9554 87.0517 49.1227Z" fill="url(#fill7)" fill-rule="evenodd" transform="matrix(1 0 0 1.01285 62 293)"/><path d="M90.1725 61.9765C89.8455 62.3036 89.3154 62.3036 88.9883 61.9765L83.8471 56.8348C83.52 56.5078 83.52 55.9776 83.8471 55.6506 84.1736 55.3236 84.7043 55.3236 85.0308 55.6506L90.1725 60.7923C90.4996 61.1193 90.4996 61.6494 90.1725 61.9765Z" fill="url(#fill8)" fill-rule="evenodd" transform="matrix(1 0 0 1.01285 62 293)"/></g></svg>